<svg xmlns="http://www.w3.org/2000/svg" height="800" width="1200" version="1.0" viewBox="-112.65 -69.70475 976.3 418.2285"><g fill="red"><path d="M366 .819c-1.9.5-7.3 1.6-12 2.5-4.7.9-11.4 2.2-15 3-19.7 3.9-41.9 8-51.5 9.5-5.3.8-16.9 3-29.5 5.5-4.1.8-10.2 2-13.5 2.5-3.3.6-7.6 1.5-9.5 2-3.4.9-15.4 3.1-34.5 6.5-18.2 3.2-26.1 4.6-31 5.6-2.7.5-10.8 2.1-18 3.5-17.8 3.5-24.7 4.8-41 7.8l-22 4c-4.4.9-9.3 1.7-11 2-5.5.8-24.4 4.4-46.5 8.9-6.9 1.4-16.7 3.3-21.7 4.2-5.1 1-9.3 2.3-9.3 2.9 0 .6 1.8 5.4 4.1 10.6 2.2 5.2 4.4 10.4 4.9 11.5.5 1.1 2.7 6 5 10.9s5.3 11.5 6.7 14.5c1.3 3.1 2.8 6.5 3.3 7.6.5 1.1 1.8 4.2 3 7 2.7 6.3 3.8 8.9 9 19.9 2.2 4.9 5.9 13.2 8.1 18.5 2.2 5.3 5.5 12.7 7.4 16.6 5.8 12.2 9.2 19.8 13 29 2 4.9 6.1 13.9 9 20 2.9 6 6.3 13.5 7.5 16.5 3.1 7.7 3.5 8.6 7.4 17.3l3.6 7.7h567.1l1.5-3.8c.9-2 2.4-5.5 3.3-7.7 1-2.2 3.1-6.9 4.6-10.5 1.6-3.6 5-11.2 7.7-17 6.5-14 7.2-15.6 9.8-22 1.2-3 3.9-9.1 6-13.5 4.7-9.9 8.3-17.8 11.4-25.3 1.3-3.1 4.3-9.7 6.6-14.7 2.3-4.9 5.2-11.2 6.5-14 1.3-2.7 4.2-9.5 6.5-15 2.4-5.5 6.2-14.3 8.7-19.5 2.4-5.2 4.8-10.4 5.3-11.5.5-1.1 2.3-5.1 3.9-8.8 1.7-3.8 3.1-7.1 3.1-7.4 0-.3 1.6-3.9 3.5-8s3.5-8.1 3.5-8.9c0-1.5.1-1.5-15.5-4.5-16.8-3.2-24.3-4.6-33-6.4-10.7-2.2-22.8-4.4-29.5-5.4-3-.5-8-1.3-11-1.9-3-.6-10.9-2.1-17.5-3.3-6.6-1.1-16.3-3-21.5-4.1-19.3-3.9-39-7.7-46-8.7-3-.5-8-1.3-11-2-3-.6-12-2.2-20-3.7-8-1.4-17.6-3.2-21.5-3.9-6.6-1.3-10.3-2-30.5-6-10.4-2.1-22.6-4.3-30-5.4-3-.5-10.7-1.9-17-3.1-26.1-4.8-33.7-6.3-49.5-9.5-15.6-3.2-17.1-3.4-22.5-3.3-3 0-7.1.4-9 .8zm304.2 99.2c-.2 3.6-1.1 9.5-2 13l-1.7 6.3-9.5-.1c-5.2 0-18.5-.4-29.4-.9l-19.9-.8.6 2.4c.4 1.4.9 5.1 1.3 8.3l.7 5.8 6.6-.6c3.6-.3 10.7-1 15.6-1.5 11.7-1.3 12.7-.7 14.4 8.5 1 5.5 1 6.9-.1 7.9-.7.7-6.7 2.9-13.3 5-6.6 2.1-12.4 4.1-13 4.5-.5.4-2.3 1-3.8 1.4-2.6.6-2.8.9-2.5 5.4l.3 4.7 4.5-.1c4.3-.1 10.6-1.3 26.5-5 3.9-.9 8.4-1.7 10-1.8 2.9-.1 3 .1 3.3 4.8.2 2.6-.2 7.1-.8 10-.6 2.8-1.5 7.7-2 11-1.5 10.3 1.6 9.6-44.6 9.6-37.4 0-40.4-.1-41.3-1.8-1.1-2.1-1.9-100.2-.8-102 .7-.9 11.5-1.2 51-1l50.2.3zm-158.4-5c.7.9.6 4.5-.4 11.8-2 14.1-4.3 32.7-5.4 42.5-.4 4.4-1.1 10.4-1.5 13.2-.8 6-.7 6 7 4.3 22.1-5 37-8 39.7-8 3.4 0 4.2 2.3 2.9 8.2-.5 2.3-1.7 7.9-2.6 12.3-.9 4.4-2.3 10.4-3.2 13.2l-1.5 5.3-34.6.2c-46 .3-45 .4-45.8-.5-.9-.9-3.5-53.3-4.7-94.7l-.2-7.5 7-.6c14.6-1.2 42.2-1 43.3.3zm-222.4.8c1.8.7 2.7 1.9 3.2 4.7.3 2.1 1.2 5.8 1.9 8.3.7 2.5 2 7.1 2.9 10.3 3.6 13.3 4.8 17.3 5.6 19.2.5 1.1 1.3 3.8 1.8 6 .6 2.2 2.7 10.1 4.7 17.5 2.1 7.4 4.1 15.1 4.6 17 1.5 6.4 3.7 14.5 4.3 16.1 1.4 3.3-1.6 4-17.5 3.7l-15.4-.3-2.3-4.8-2.2-4.7h-23c-25.4 0-23.6-.4-28.3 7-1.2 1.9-3.3 3.7-4.7 4.1-3.1.9-27.3 1.1-29.4.3-2.4-.9-1.9-3.7 1.9-11.2 1.9-3.7 5.1-10.3 7.1-14.7 2-4.4 6.4-13.9 9.9-21 3.4-7.2 7.2-15.3 8.5-18 1.3-2.8 6-12.7 10.6-22.2l8.4-17.2 7.7-.4c17.9-.7 37.3-.6 39.7.3zm129.6 1.5c10.4 4.5 17.7 11.3 21.2 19.8 5 12.3-1.1 28.7-12.8 34.7-2.7 1.4-5.1 2.6-5.3 2.7-.4.2 3.5 8.7 12 25.6 3.8 7.6 6.9 14.5 6.9 15.2 0 .8-.9 1.9-1.9 2.5-2 1-34.9 1.4-38.6.4-1.1-.3-7.8-7.7-15-16.4-7.1-8.7-13.3-15.9-13.6-15.9-.3-.1-1.5 6.7-2.5 15s-2.3 15.8-2.9 16.6c-.9 1.2-4.4 1.6-16.6 2.1-13.5.4-15.6.3-16.8-1.2-.9-1.1-1.6-7-2.2-19.4-.5-9.7-1.4-21.5-1.9-26.2-.5-4.7-1-11.7-1-15.6 0-3.9-.3-9.9-.6-13.3l-.7-6.1h-6.4c-4.8 0-6.5-.4-6.9-1.5-.4-.9-.7-5.6-.8-10.6-.1-7 .2-9.2 1.4-9.9.9-.7 19.9-.9 51-.7 46.3.2 49.8.4 54 2.2zm-237.7.3c8.5 2.1 17.3 6.9 21.7 12 6.8 7.7 8.5 11.6 8.5 20.2 0 9.1-1.5 12.3-9.4 20-10.9 10.6-24.4 15.3-48.1 16.7l-13.5.8-.7 8.5c-.9 11.9-2.5 23.1-3.5 24-.4.4-7.1 1-14.9 1.4-11.2.5-14.4.3-15.9-.8-1.7-1.2-2.1-3.6-3.1-15.7-2.8-32.7-3.4-39.9-4.5-50.9-.6-6.3-1.3-12.1-1.5-12.8-.2-.8-2.4-1.2-6.3-1.2-4.9 0-6.2-.4-7.1-1.9-1.4-2.8-1.3-19.4.2-20.9 1.7-1.7 91.1-1.1 98.1.6z"/><path d="M258.4 138.519c-1 2.6-3.8 8.6-6.1 13.2-2.3 4.7-3.9 8.9-3.7 9.3.7 1.1 19.2 1 19.9-.2.3-.5-.6-4.9-1.9-9.7-1.4-4.8-3-10.7-3.6-13.1-.6-2.3-1.4-4.2-1.9-4.2-.4 0-1.7 2.1-2.7 4.7zm118.2-16.5c-1.4 4.5-2.6 11.2-2.6 14.3v3.7l6.3-.7c3.4-.3 7.7-1 9.6-1.5 7.6-2 10.6-8.9 5.6-12.9-4.4-3.4-18.1-5.5-18.9-2.9zm-230.6 2.3c-.4.5-1 3.2-1.3 6-.4 2.7-.9 6.3-1.3 7.9l-.7 2.9 9-.5c9.7-.4 14.5-2.6 16.3-7.4 1.3-3.2.3-5.2-3.4-7.2-3.6-1.9-17.4-3.2-18.6-1.7z"/></g></svg>